PathFileType	4	(X/Y/Z)	/Users/mathieubourgeois/Desktop/Analyse/Traitement/Sujet_05/Data/Transformed_Sujet_05_velo_60.trc
DataRate	CameraRate	NumFrames	NumMarkers	Units	OrigDataRate	OrigDataStartFrame	OrigNumFrames
120.000000	120.000000	4	36	mm	120.000000	962	1925
Frame#	Time	RFHD			RANE			STRN			LANI			LKNE			T10			RHUM			RWRB			C7			LFWT			LTOE			RTOE			LWRA			LBWT			RBWT			RFWT			LKNI			RKNI			RKNE			LANE			RANI			LHEE			RHEE			LHUM			LRAD			RRAD			RWRA			LWRB			LFHD			LBHD			RBHD			RSHO			LSHO			CLAV			LCAR			RCAR			
		X1	Y1	Z1	X2	Y2	Z2	X3	Y3	Z3	X4	Y4	Z4	X5	Y5	Z5	X6	Y6	Z6	X7	Y7	Z7	X8	Y8	Z8	X9	Y9	Z9	X10	Y10	Z10	X11	Y11	Z11	X12	Y12	Z12	X13	Y13	Z13	X14	Y14	Z14	X15	Y15	Z15	X16	Y16	Z16	X17	Y17	Z17	X18	Y18	Z18	X19	Y19	Z19	X20	Y20	Z20	X21	Y21	Z21	X22	Y22	Z22	X23	Y23	Z23	X24	Y24	Z24	X25	Y25	Z25	X26	Y26	Z26	X27	Y27	Z27	X28	Y28	Z28	X29	Y29	Z29	X30	Y30	Z30	X31	Y31	Z31	X32	Y32	Z32	X33	Y33	Z33	X34	Y34	Z34	X35	Y35	Z35	X36	Y36	Z36	

963	8.016666666666666	136.6668701171875	1355.238647460938	119.8488769531249	-130.1072998046875	471.96630859375	192.8394317626953	-224.0349578857422	1157.909423828125	41.49764251708974	-335.6708374023438	374.287109375	-59.65460586547858	-157.5289306640625	714.996826171875	-147.9709014892579	-345.3859252929688	1360.714721679688	52.16373443603503	18.40081214904783	1030.651489257812	209.7212677001953	240.7937927246093	891.3019409179688	249.320816040039	-111.2441558837891	1419.6484375	49.22845077514638	-372.400146484375	1077.57958984375	-86.47403717041027	-270.9328918457031	206.0185089111328	-103.0399856567383	48.67370605468748	384.3982849121094	158.2368621826172	273.1929931640625	931.444580078125	-146.5250549316407	-544.02978515625	1100.009643554688	-16.63785362243666	-534.83837890625	1108.431762695312	119.1005172729491	-371.9673461914062	1077.162231445312	161.2026367187499	-156.1033172607422	684.72900390625	-41.86464691162116	-41.90962219238283	819.6857299804688	112.8156280517578	-63.79341888427737	860.5775756835938	217.9054260253906	-364.6347045898438	395.0887145996094	-135.6902465820313	-96.76458740234376	477.265625	111.0856552124023	-424.4040222167969	393.5853576660156	-89.52793121337899	-188.9581756591797	447.4619750976562	147.2246398925781	17.75291061401369	1044.380004882812	-141.8699951171876	65.53042602539065	1074.946044921875	-184.8993377685547	60.36437225341794	1064.789428710938	258.5989685058593	271.7083129882812	935.0762939453125	196.8478393554687	237.8248138427735	883.9902954101562	-181.2101745605469	141.4624328613281	1356.519653320312	-27.44319152832038	17.52524948120118	1446.456298828125	-36.35685729980477	7.152919769287098	1469.536743164062	96.84410858154288	-39.19329833984377	1322.220947265625	188.9461364746093	-63.5713768005371	1333.210815429688	-100.5757904052735	-102.7553176879883	1276.412109375	46.31677246093741	315.2434997558594	926.1472778320312	-224.1242980957032	319.3258666992187	928.029052734375	285.1254577636719	
964	8.025	136.8106384277343	1356.494995117188	119.1694259643554	-127.3157119750977	462.1593322753906	193.0297393798828	-224.038330078125	1157.870361328125	41.58351135253896	-337.5507507324219	382.9688415527344	-59.66514968872077	-153.3950805664062	719.6871337890625	-148.7015075683595	-345.3164672851562	1360.711059570312	52.49730300903308	18.63877487182615	1030.869018554688	209.687026977539	240.8476409912109	891.284912109375	249.3849029541015	-111.3247833251953	1419.87939453125	48.82752227783193	-372.3760070800781	1078.018310546875	-85.69628143310558	-275.5225524902344	214.6911010742188	-102.8373413085938	52.22840881347654	376.0029907226562	158.2896881103515	273.1769409179688	931.4662475585938	-146.4642944335938	-544.0050659179688	1100.2001953125	-15.83679962158217	-534.618408203125	1108.211669921875	119.9107818603514	-371.3240661621094	1076.708740234375	161.9400634765624	-153.5595245361328	689.4152221679688	-42.3762168884278	-44.34446334838869	811.5037231445312	113.1069793701171	-66.45319366455081	852.5224609375	218.4168395996093	-365.8079223632812	404.2364807128906	-135.7723388671876	-94.19698333740236	468.3585815429688	111.3657989501953	-425.6328735351562	403.3110961914062	-89.1791305541993	-185.8614501953125	437.3916015625	147.2694702148437	17.6683864593506	1044.2197265625	-141.8553466796876	65.4079513549805	1074.777099609375	-184.9640502929688	60.66572952270505	1065.032104492188	258.4955749511718	271.847412109375	935.0172119140625	196.8925323486328	237.8519287109375	883.9902954101562	-181.1428527832032	141.3728485107422	1357.55078125	-28.13716506958014	17.02248191833496	1446.923461914062	-37.01625823974618	6.717502593994129	1470.215942382812	96.12144470214835	-38.73182296752932	1322.620727539062	188.3820190429687	-63.8868064880371	1333.069946289062	-101.1612777709962	-102.6709060668945	1276.570434570312	46.06061553955069	315.2610473632812	926.1380004882812	-224.0779266357422	319.4086303710937	927.9983520507812	285.1766967773438	
965	8.033333333333333	136.9488525390625	1357.764526367188	118.4472885131835	-124.9548110961914	452.3031311035156	193.2466430664062	-224.0017547607422	1157.843505859375	41.64192581176748	-338.7058715820312	392.0402221679688	-59.63996124267585	-149.2232818603515	724.5877075195312	-149.4144439697266	-345.2005920410156	1360.723266601562	52.85910034179675	18.91633033752439	1031.066284179688	209.6883544921874	240.9411926269531	891.2525024414062	249.4550170898437	-111.322509765625	1420.116943359375	48.37745666503896	-372.3292236328125	1078.5361328125	-84.89740753173839	-280.6844482421875	222.7344055175781	-102.905387878418	55.20298385620115	367.2967529296875	158.3158264160156	273.2189025878906	931.474853515625	-146.3939819335938	-543.8958129882812	1100.404052734375	-15.11355495452894	-534.340087890625	1108.121459960938	120.8272171020506	-370.6517639160156	1076.25048828125	162.7449645996093	-150.0873870849609	694.4248046875	-42.86501693725592	-46.79104614257814	803.1685180664062	113.5098724365234	-68.98316192626956	844.0809936523438	218.5314025878906	-366.1721801757812	413.6785278320312	-135.7190246582032	-91.89087677001955	458.9649047851562	111.6045303344726	-426.4786376953125	413.7728881835938	-89.36590576171884	-183.2471923828125	427.2057189941406	147.3695831298828	17.62449073791506	1044.076049804688	-141.8290710449219	65.31826782226565	1074.626098632812	-185.0352172851563	60.96946716308591	1065.260375976562	258.4241943359374	272.0195007324219	934.9171142578125	196.9387664794922	237.8896484375	883.989013671875	-181.0687866210938	141.3082275390625	1358.603881835938	-28.85641098022467	16.51832580566407	1447.4267578125	-37.73387527465829	6.336529731750477	1470.882202148438	95.37287902832023	-38.17554473876955	1323.05078125	187.6935272216796	-64.04913330078124	1332.955810546875	-101.5879821777345	-102.4156799316406	1276.755126953125	45.75683593749991	315.3139953613281	926.1165771484375	-224.0045776367188	319.4989624023437	927.9415893554688	285.2442626953125	
966	8.041666666666666	137.1771392822265	1359.082275390625	117.6846160888671	-123.2889251708985	442.5210876464844	193.5432434082031	-223.9224700927734	1157.846801757812	41.69377136230459	-340.08056640625	402.2252807617188	-60.1518630981446	-145.0553894042968	729.6346435546875	-150.1889801025391	-345.0552978515625	1360.747802734375	53.19494247436511	19.19667053222654	1031.287841796875	209.7117614746093	241.0574798583984	891.2156982421875	249.517822265625	-111.2930603027344	1420.4228515625	47.85263824462881	-372.27783203125	1079.122436523438	-84.07903289794933	-283.6242065429688	231.3442687988281	-102.8387298583985	57.65067291259763	358.2990417480469	158.302490234375	273.2491760253906	931.4917602539062	-146.325912475586	-543.8364868164062	1100.669311523438	-14.23050689697279	-534.0090942382812	1108.02587890625	121.703643798828	-369.9540405273438	1075.839599609375	164.2069244384764	-145.8813781738281	699.6682739257812	-43.42309570312506	-50.80311965942384	793.7632446289062	113.4392471313476	-72.07210540771487	835.47216796875	218.7581939697265	-367.3516845703125	422.8834533691406	-135.910614013672	-90.01242828369142	449.4515686035156	111.8457794189453	-425.9517211914062	424.4059753417969	-89.02431488037118	-180.9914093017578	417.0083923339844	147.4314422607421	17.5844020843506	1043.944580078125	-141.826156616211	65.25537109375003	1074.48193359375	-185.0989837646485	61.35124969482419	1065.475952148438	258.3500366210937	272.1814575195312	934.8286743164062	196.9937591552734	237.9560699462891	883.9808959960938	-180.9829559326172	141.3078308105469	1359.680419921875	-29.61604309082038	16.13087463378907	1447.926391601562	-38.44333267211923	5.972594261169422	1471.617919921875	94.63079833984366	-37.5064392089844	1323.506469726562	187.0376739501952	-64.29386138916014	1332.85986328125	-102.2391052246095	-102.1664047241211	1276.941528320312	45.42695617675772	315.3740539550781	926.0761108398438	-223.9352722167969	319.5881042480468	927.8878173828125	285.3233947753906	
